<svg width="17" height="17" viewBox="0 0 17 17" fill="none" xmlns="http://www.w3.org/2000/svg">
<path fill-rule="evenodd" clip-rule="evenodd" d="M14.5018 6.11402C14.5019 6.21849 14.4801 6.32183 14.438 6.4174C14.3958 6.51297 14.3341 6.59868 14.2568 6.66902L9.00683 11.442C8.86831 11.567 8.68838 11.6361 8.50183 11.6361C8.31528 11.6361 8.13536 11.567 7.99683 11.442L2.74683 6.66902C2.59964 6.53509 2.51168 6.34817 2.5023 6.14938C2.49292 5.95059 2.5629 5.75622 2.69683 5.60902C2.83077 5.46183 3.01769 5.37387 3.21648 5.36449C3.41527 5.35511 3.60964 5.42509 3.75683 5.55902L8.50183 9.87302L13.2468 5.55902C13.3543 5.46112 13.488 5.39658 13.6315 5.37325C13.775 5.34991 13.9222 5.3688 14.0552 5.4276C14.1881 5.48641 14.3012 5.5826 14.3805 5.70447C14.4598 5.82633 14.5019 5.96862 14.5018 6.11402Z" fill="#121214"/>
</svg>
