<svg width="17" height="16" viewBox="0 0 17 16" fill="none" xmlns="http://www.w3.org/2000/svg">
<path fill-rule="evenodd" clip-rule="evenodd" d="M10.6645 5.665L14.6015 5.939C15.2045 5.981 15.4515 6.736 14.9895 7.127L11.9765 9.684L12.8945 13.498C12.9261 13.628 12.9183 13.7644 12.8721 13.8899C12.8259 14.0154 12.7434 14.1244 12.6351 14.2028C12.5268 14.2813 12.3976 14.3258 12.264 14.3307C12.1303 14.3355 11.9982 14.3005 11.8845 14.23L8.56253 12.167L5.24053 14.23C5.12685 14.3005 4.99477 14.3355 4.86111 14.3307C4.72745 14.3258 4.59825 14.2813 4.48996 14.2028C4.38166 14.1244 4.29917 14.0154 4.25297 13.8899C4.20677 13.7644 4.19896 13.628 4.23053 13.498L5.15053 9.684L2.13853 7.132C2.03557 7.046 1.96056 6.93127 1.9231 6.80245C1.88563 6.67363 1.8874 6.53657 1.92818 6.40876C1.96896 6.28096 2.0469 6.1682 2.15204 6.08488C2.25719 6.00157 2.38478 5.95148 2.51853 5.941L6.45553 5.665L7.93953 2.083C7.9904 1.95989 8.07666 1.85464 8.18738 1.78058C8.29811 1.70652 8.42832 1.66699 8.56153 1.66699C8.69474 1.66699 8.82495 1.70652 8.93568 1.78058C9.0464 1.85464 9.13266 1.95989 9.18353 2.083L10.6635 5.665H10.6645Z" fill="#FBBC04"/>
</svg>
