<svg width="41" height="40" viewBox="0 0 41 40" fill="none" xmlns="http://www.w3.org/2000/svg">
<path d="M27.7165 31.6083H13.2082C12.2915 31.6083 11.5415 30.8583 11.5415 29.9417V9.79167C11.5415 8.875 12.2915 8.125 13.2082 8.125H27.7165C28.6332 8.125 29.3832 8.875 29.3832 9.79167V29.9417C29.3832 30.3837 29.2076 30.8076 28.895 31.1202C28.5825 31.4327 28.1585 31.6083 27.7165 31.6083Z" fill="#FBBC04"/>
<path d="M12.375 38.0667H28.55C30.9667 38.0667 32.925 36.1001 32.925 33.6917V9.37508C32.925 9.09881 32.8153 8.83386 32.6199 8.63851C32.4246 8.44316 32.1596 8.33341 31.8833 8.33341C31.6071 8.33341 31.3421 8.44316 31.1468 8.63851C30.9514 8.83386 30.8417 9.09881 30.8417 9.37508V33.6917C30.8417 34.9584 29.8167 35.9834 28.55 35.9834H12.375C11.1083 35.9834 10.0833 34.9584 10.0833 33.6917V6.04175C10.0833 4.77508 11.1083 3.75008 12.375 3.75008H28.55C29.8167 3.75008 30.8417 4.77508 30.8417 6.04175C30.8417 6.31801 30.9514 6.58297 31.1468 6.77832C31.3421 6.97367 31.6071 7.08341 31.8833 7.08341C32.1596 7.08341 32.4246 6.97367 32.6199 6.77832C32.8153 6.58297 32.925 6.31801 32.925 6.04175C32.925 3.63341 30.9583 1.66675 28.55 1.66675H12.375C9.96667 1.66675 8 3.63341 8 6.04175V33.6917C8 36.1001 9.96667 38.0667 12.375 38.0667Z" fill="#FBBC04"/>
<path d="M16.7336 7.00838H21.0086C21.2848 7.00838 21.5498 6.89864 21.7451 6.70328C21.9405 6.50793 22.0502 6.24298 22.0502 5.96672C22.0502 5.69045 21.9405 5.4255 21.7451 5.23015C21.5498 5.0348 21.2848 4.92505 21.0086 4.92505H16.7336C16.4573 4.92505 16.1923 5.0348 15.997 5.23015C15.8016 5.4255 15.6919 5.69045 15.6919 5.96672C15.6919 6.24298 15.8016 6.50793 15.997 6.70328C16.1923 6.89864 16.4573 7.00838 16.7336 7.00838ZM24.1919 7.00838H24.0586C23.7823 7.00838 23.5173 6.89864 23.322 6.70328C23.1266 6.50793 23.0169 6.24298 23.0169 5.96672C23.0169 5.69045 23.1266 5.4255 23.322 5.23015C23.5173 5.0348 23.7823 4.92505 24.0586 4.92505H24.1919C24.4682 4.92505 24.7331 5.0348 24.9285 5.23015C25.1238 5.4255 25.2336 5.69045 25.2336 5.96672C25.2336 6.24298 25.1238 6.50793 24.9285 6.70328C24.7331 6.89864 24.4682 7.00838 24.1919 7.00838ZM17.3752 34.7167H23.5502C23.8265 34.7167 24.0914 34.607 24.2868 34.4116C24.4821 34.2163 24.5919 33.9513 24.5919 33.675C24.5919 33.3988 24.4821 33.1338 24.2868 32.9385C24.0914 32.7431 23.8265 32.6334 23.5502 32.6334H17.3752C17.099 32.6334 16.834 32.7431 16.6387 32.9385C16.4433 33.1338 16.3336 33.3988 16.3336 33.675C16.3336 33.9513 16.4433 34.2163 16.6387 34.4116C16.834 34.607 17.099 34.7167 17.3752 34.7167Z" fill="#FBBC04"/>
</svg>
