<svg width="17" height="17" viewBox="0 0 17 17" fill="none" xmlns="http://www.w3.org/2000/svg">
<path fill-rule="evenodd" clip-rule="evenodd" d="M14.5372 6.11402C14.5373 6.21849 14.5155 6.32183 14.4734 6.4174C14.4312 6.51297 14.3695 6.59868 14.2922 6.66902L9.04223 11.442C8.90371 11.567 8.72378 11.6361 8.53723 11.6361C8.35068 11.6361 8.17076 11.567 8.03223 11.442L2.78223 6.66902C2.63504 6.53509 2.54708 6.34817 2.5377 6.14938C2.52832 5.95059 2.5983 5.75622 2.73223 5.60902C2.86617 5.46183 3.05309 5.37387 3.25188 5.36449C3.45067 5.35511 3.64504 5.42509 3.79223 5.55902L8.53723 9.87302L13.2822 5.55902C13.3897 5.46112 13.5234 5.39658 13.6669 5.37325C13.8104 5.34991 13.9576 5.3688 14.0906 5.4276C14.2235 5.48641 14.3366 5.5826 14.4159 5.70447C14.4952 5.82633 14.5373 5.96862 14.5372 6.11402Z" fill="#121214"/>
</svg>
