<svg width="19" height="19" viewBox="0 0 19 19" fill="none" xmlns="http://www.w3.org/2000/svg">
<path fill-rule="evenodd" clip-rule="evenodd" d="M7.67915 15.8559C7.79668 15.856 7.91293 15.8315 8.02045 15.784C8.12797 15.7366 8.22439 15.6672 8.30352 15.5803L13.6731 9.67401C13.8137 9.51816 13.8915 9.31575 13.8915 9.10588C13.8915 8.89602 13.8137 8.6936 13.6731 8.53776L8.30352 2.63151C8.15285 2.46591 7.94256 2.36696 7.71892 2.35641C7.49528 2.34586 7.27662 2.42458 7.11102 2.57526C6.94543 2.72593 6.84647 2.93622 6.83592 3.15986C6.82537 3.38349 6.9041 3.60216 7.05477 3.76776L11.908 9.10588L7.05477 14.444C6.94463 14.5649 6.87202 14.7153 6.84577 14.8767C6.81953 15.0382 6.84077 15.2038 6.90693 15.3534C6.97308 15.503 7.0813 15.6301 7.2184 15.7193C7.3555 15.8085 7.51558 15.856 7.67915 15.8559Z" fill="white"/>
</svg>
