<svg width="16" height="17" viewBox="0 0 16 17" fill="none" xmlns="http://www.w3.org/2000/svg">
<path fill-rule="evenodd" clip-rule="evenodd" d="M14 5.9275C14.0001 6.03197 13.9783 6.1353 13.9361 6.23088C13.8939 6.32645 13.8322 6.41215 13.755 6.4825L8.505 11.2555C8.36647 11.3804 8.18655 11.4496 8 11.4496C7.81345 11.4496 7.63353 11.3804 7.495 11.2555L2.245 6.4825C2.09781 6.34856 2.00984 6.16164 2.00047 5.96285C1.99109 5.76406 2.06107 5.56969 2.195 5.4225C2.32894 5.2753 2.51586 5.18734 2.71465 5.17796C2.91343 5.16859 3.10781 5.23856 3.255 5.3725L8 9.6865L12.745 5.3725C12.8525 5.2746 12.9861 5.21005 13.1296 5.18672C13.2732 5.16339 13.4204 5.18228 13.5533 5.24108C13.6863 5.29989 13.7993 5.39608 13.8786 5.51794C13.9579 5.63981 14.0001 5.7821 14 5.9275Z" fill="#121214"/>
</svg>
