<svg width="19" height="19" viewBox="0 0 19 19" fill="none" xmlns="http://www.w3.org/2000/svg">
<path fill-rule="evenodd" clip-rule="evenodd" d="M11.2124 15.8437C11.0948 15.8438 10.9786 15.8193 10.8711 15.7718C10.7635 15.7243 10.6671 15.6549 10.588 15.5681L5.21836 9.6618C5.0778 9.50596 5 9.30354 5 9.09367C5 8.88381 5.0778 8.68139 5.21836 8.52555L10.588 2.6193C10.7387 2.45371 10.9489 2.35475 11.1726 2.3442C11.3962 2.33365 11.6149 2.41237 11.7805 2.56305C11.9461 2.71373 12.045 2.92401 12.0556 3.14765C12.0661 3.37129 11.9874 3.58996 11.8367 3.75555L6.98461 9.09367L11.839 14.4318C11.9493 14.5529 12.022 14.7036 12.0481 14.8654C12.0743 15.0271 12.0527 15.193 11.9862 15.3427C11.9196 15.4925 11.8109 15.6196 11.6732 15.7085C11.5356 15.7975 11.3751 15.8444 11.2112 15.8437H11.2124Z" fill="#898989"/>
</svg>
