<svg width="13" height="12" viewBox="0 0 13 12" fill="none" xmlns="http://www.w3.org/2000/svg">
<path fill-rule="evenodd" clip-rule="evenodd" d="M7.31189 4.89199C7.07798 4.65732 6.94668 4.33947 6.94678 4.00813C6.94687 3.6768 7.07835 3.35902 7.31239 3.12449C7.54695 2.89024 7.86489 2.75867 8.19639 2.75867C8.52789 2.75867 8.84583 2.89024 9.08039 3.12449C9.19645 3.24061 9.28849 3.37845 9.35128 3.53015C9.41406 3.68184 9.44635 3.84442 9.44631 4.00859C9.44626 4.17276 9.41388 4.33532 9.35101 4.48698C9.28814 4.63864 9.19601 4.77643 9.07989 4.89249C8.96377 5.00854 8.82593 5.10059 8.67423 5.16337C8.52254 5.22616 8.35996 5.25845 8.19579 5.2584C8.03161 5.25835 7.86906 5.22597 7.7174 5.1631C7.56574 5.10023 7.42795 5.00811 7.31189 4.89199ZM8.55039 3.65499C8.45648 3.56134 8.32926 3.50876 8.19664 3.50876C8.06402 3.50876 7.9368 3.56134 7.84289 3.65499C7.77302 3.72493 7.72545 3.81403 7.70621 3.911C7.68696 4.00798 7.69689 4.10848 7.73475 4.19981C7.77261 4.29114 7.8367 4.3692 7.91891 4.42412C8.00113 4.47903 8.09777 4.50834 8.19664 4.50834C8.29551 4.50834 8.39216 4.47903 8.47437 4.42412C8.55658 4.3692 8.62067 4.29114 8.65853 4.19981C8.69639 4.10848 8.70632 4.00798 8.68707 3.911C8.66783 3.81403 8.62026 3.72493 8.55039 3.65499Z" fill="#0E865C"/>
<path fill-rule="evenodd" clip-rule="evenodd" d="M10.1635 1.17551C10.3883 1.18956 10.6003 1.28519 10.7597 1.44445C10.919 1.60372 11.0148 1.81566 11.029 2.04051L11.204 5.38851C11.2107 5.50247 11.1934 5.61657 11.1529 5.72333C11.1125 5.83009 11.05 5.92711 10.9695 6.00801L6.48947 10.489C6.15647 10.8215 5.61247 10.793 5.27297 10.4535L1.77097 6.95151C1.43197 6.61301 1.40197 6.07051 1.73247 5.73751L6.19497 1.23751C6.27621 1.15618 6.37381 1.09303 6.4813 1.05226C6.58879 1.01149 6.70372 0.994021 6.81847 1.00101L10.1635 1.17551ZM6.77897 1.75051C6.75447 1.74901 6.73797 1.75551 6.72797 1.76551L2.26497 6.26551C2.23847 6.29201 2.24247 6.36251 2.30097 6.42101L5.80297 9.92301C5.86197 9.98151 5.93197 9.98551 5.95897 9.95851L10.441 5.47601C10.4495 5.46751 10.456 5.45101 10.4545 5.42701L10.28 2.08001C10.2754 2.04041 10.2575 2.00354 10.2293 1.97539C10.201 1.94725 10.1641 1.92949 10.1245 1.92501L6.77897 1.75051Z" fill="#0E865C"/>
</svg>
