<svg width="16" height="16" viewBox="0 0 16 16" fill="none" xmlns="http://www.w3.org/2000/svg">
<path fill-rule="evenodd" clip-rule="evenodd" d="M14 5.61378C14.0001 5.71825 13.9783 5.82158 13.9361 5.91716C13.8939 6.01273 13.8322 6.09843 13.755 6.16878L8.505 10.9418C8.36647 11.0667 8.18655 11.1359 8 11.1359C7.81345 11.1359 7.63353 11.0667 7.495 10.9418L2.245 6.16878C2.09781 6.03484 2.00984 5.84792 2.00047 5.64913C1.99109 5.45034 2.06107 5.25597 2.195 5.10878C2.32894 4.96158 2.51586 4.87362 2.71465 4.86424C2.91343 4.85487 3.10781 4.92484 3.255 5.05878L8 9.37278L12.745 5.05878C12.8525 4.96088 12.9861 4.89633 13.1296 4.873C13.2732 4.84967 13.4204 4.86856 13.5533 4.92736C13.6863 4.98617 13.7993 5.08236 13.8786 5.20422C13.9579 5.32609 14.0001 5.46838 14 5.61378Z" fill="white"/>
</svg>
