<svg width="25" height="25" viewBox="0 0 25 25" fill="none" xmlns="http://www.w3.org/2000/svg">
<path fill-rule="evenodd" clip-rule="evenodd" d="M20.5225 13.572L22.7795 16.332C22.8555 16.4255 22.9062 16.537 22.9266 16.6557C22.9469 16.7745 22.9362 16.8965 22.8956 17.0099C22.855 17.1234 22.7858 17.2244 22.6946 17.3033C22.6035 17.3821 22.4936 17.4361 22.3755 17.46L19.5045 18.035L18.3245 21.573C18.2782 21.7124 18.1891 21.8337 18.0699 21.9195C17.9506 22.0053 17.8074 22.0513 17.6605 22.051C17.5421 22.0512 17.4257 22.0214 17.322 21.9644C17.2183 21.9074 17.1307 21.825 17.0675 21.725L14.6915 17.954C14.6457 17.8828 14.6169 17.802 14.6072 17.7179C14.5976 17.6338 14.6073 17.5486 14.6357 17.4688C14.6641 17.3891 14.7104 17.3169 14.771 17.2578C14.8316 17.1987 14.905 17.1543 14.9855 17.128C16.8976 16.5289 18.5415 15.2825 19.6345 13.603C19.8355 13.293 20.2895 13.288 20.5225 13.573V13.572ZM5.35348 13.572C5.58748 13.288 6.04148 13.294 6.24248 13.602C7.33489 15.2818 8.97841 16.5286 10.8905 17.128C11.2355 17.236 11.3775 17.648 11.1845 17.954L8.80848 21.724C8.73728 21.8356 8.63602 21.9248 8.51635 21.9814C8.39668 22.038 8.26345 22.0597 8.13202 22.0439C8.00058 22.0281 7.87627 21.9756 7.77339 21.8923C7.67051 21.809 7.59324 21.6983 7.55048 21.573L6.37048 18.035L3.50048 17.461C3.3817 17.4378 3.27099 17.3841 3.17921 17.3052C3.08744 17.2263 3.01777 17.1249 2.97702 17.0109C2.93628 16.897 2.92587 16.7744 2.94681 16.6552C2.96775 16.536 3.01933 16.4243 3.09648 16.331L5.35348 13.573V13.572ZM16.5955 8.323L14.8805 9.778L15.4025 11.949C15.4207 12.0229 15.4165 12.1006 15.3903 12.1722C15.3642 12.2437 15.3173 12.3058 15.2557 12.3505C15.1941 12.3953 15.1206 12.4207 15.0445 12.4234C14.9684 12.4262 14.8932 12.4062 14.8285 12.366L12.9385 11.192L11.0485 12.365C10.9838 12.4059 10.9083 12.4264 10.8318 12.424C10.7554 12.4216 10.6814 12.3963 10.6194 12.3514C10.5574 12.3065 10.5103 12.2441 10.4841 12.1722C10.4579 12.1003 10.4539 12.0222 10.4725 11.948L10.9965 9.778L9.28248 8.327C9.22379 8.27818 9.18099 8.21298 9.15953 8.13972C9.13807 8.06647 9.13893 7.98847 9.16201 7.91571C9.18508 7.84294 9.22932 7.77871 9.28907 7.7312C9.34883 7.68369 9.42139 7.65508 9.49748 7.649L11.7395 7.492L12.5825 5.453C12.6113 5.38262 12.6603 5.32239 12.7235 5.28C12.7866 5.23762 12.8609 5.21498 12.937 5.21498C13.013 5.21498 13.0873 5.23762 13.1505 5.28C13.2136 5.32239 13.2627 5.38262 13.2915 5.453L14.1345 7.492L16.3745 7.647C16.4505 7.65259 16.5232 7.6807 16.5832 7.72774C16.6432 7.77478 16.6879 7.83862 16.7115 7.91113C16.7351 7.98364 16.7365 8.06153 16.7157 8.13488C16.6949 8.20823 16.6527 8.27372 16.5945 8.323H16.5955ZM12.9375 2.5C11.1693 2.50013 9.47356 3.20267 8.22334 4.45307C6.97313 5.70347 6.27085 7.3993 6.27098 9.1675C6.27111 10.9357 6.97365 12.6314 8.22405 13.8816C9.47445 15.1318 11.1703 15.8341 12.9385 15.834C14.7067 15.834 16.4025 15.1316 17.6528 13.8813C18.9031 12.631 19.6055 10.9352 19.6055 9.167C19.6055 7.3988 18.9031 5.70302 17.6528 4.45272C16.4025 3.20241 14.7067 2.5 12.9385 2.5H12.9375Z" fill="#121214"/>
</svg>
