<svg width="40" height="40" viewBox="0 0 40 40" fill="none" xmlns="http://www.w3.org/2000/svg">
<path d="M16.4915 24.6917C21.0198 24.6917 24.6915 21.0209 24.6915 16.4917C24.6915 11.9634 21.0207 8.29175 16.4915 8.29175C11.9632 8.29175 8.2915 11.9626 8.2915 16.4917C8.2915 21.0201 11.9623 24.6917 16.4915 24.6917Z" fill="#FBBC04"/>
<path d="M35.3835 36.6833C35.1168 36.6833 34.8502 36.5833 34.6502 36.375L24.1918 25.9249C23.9918 25.7249 23.8835 25.4583 23.8835 25.1749C23.8835 24.8916 24.0002 24.6249 24.2085 24.4333L24.3418 24.3083C28.6418 20.0083 28.6418 12.975 24.3252 8.65828C20.0085 4.34162 12.9752 4.34162 8.6585 8.65828C4.34183 12.975 4.34183 20.0083 8.6585 24.3249C11.9418 27.6083 16.9752 28.4999 21.1835 26.5333C21.7085 26.2916 22.3252 26.5166 22.5668 27.0333C22.8085 27.5583 22.5835 28.1749 22.0668 28.4166C17.0668 30.7499 11.0918 29.6999 7.1835 25.7916C2.05016 20.6583 2.05016 12.3083 7.1835 7.17495C12.3168 2.04162 20.6668 2.04162 25.8002 7.17495C30.7252 12.0999 30.9252 20 26.3918 25.1666L36.1252 34.8999C36.5335 35.3083 36.5335 35.9666 36.1252 36.375C35.9168 36.5833 35.6502 36.6833 35.3835 36.6833Z" fill="#FBBC04"/>
<path d="M9.3665 13.8167C9.19984 13.8167 9.0415 13.7751 8.88317 13.7001C8.37484 13.4334 8.17484 12.8084 8.4415 12.2917C8.87484 11.4751 9.4165 10.7334 10.0748 10.0751C11.7915 8.35842 14.0665 7.41675 16.4915 7.41675C16.7678 7.41675 17.0327 7.52649 17.2281 7.72185C17.4234 7.9172 17.5332 8.18215 17.5332 8.45841C17.5332 8.73468 17.4234 8.99963 17.2281 9.19498C17.0327 9.39033 16.7678 9.50008 16.4915 9.50008C14.6248 9.50008 12.8665 10.2251 11.5498 11.5501C11.0415 12.0584 10.6248 12.6334 10.2915 13.2584C10.1082 13.6084 9.7415 13.8167 9.3665 13.8167ZM8.45817 17.5334C7.88317 17.5334 7.4165 17.0667 7.4165 16.4917C7.4165 16.1584 7.43317 15.8251 7.47484 15.5001C7.5415 14.9251 8.04984 14.5167 8.62484 14.5834C9.19984 14.6501 9.60817 15.1584 9.5415 15.7334C9.5165 15.9917 9.49984 16.2417 9.49984 16.5001C9.49984 17.0667 9.03317 17.5334 8.45817 17.5334Z" fill="#FBBC04"/>
</svg>
