<svg width="19" height="19" viewBox="0 0 19 19" fill="none" xmlns="http://www.w3.org/2000/svg">
<path fill-rule="evenodd" clip-rule="evenodd" d="M7.79011 15.8437C7.90764 15.8438 8.02389 15.8193 8.13141 15.7718C8.23893 15.7243 8.33535 15.6549 8.41448 15.5681L13.7841 9.6618C13.9247 9.50596 14.0025 9.30354 14.0025 9.09367C14.0025 8.88381 13.9247 8.68139 13.7841 8.52555L8.41448 2.6193C8.26381 2.45371 8.05352 2.35475 7.82988 2.3442C7.60625 2.33365 7.38758 2.41237 7.22198 2.56305C7.05639 2.71373 6.95743 2.92401 6.94688 3.14765C6.93634 3.37129 7.01506 3.58996 7.16573 3.75555L12.019 9.09367L7.16573 14.4318C7.0556 14.5527 6.98298 14.7031 6.95674 14.8645C6.93049 15.026 6.95173 15.1916 7.01789 15.3412C7.08405 15.4908 7.19226 15.6179 7.32936 15.7071C7.46646 15.7963 7.62654 15.8438 7.79011 15.8437Z" fill="#121214"/>
</svg>
