<svg width="25" height="24" viewBox="0 0 25 24" fill="none" xmlns="http://www.w3.org/2000/svg">
<path d="M17.2101 4.53003C17.6301 4.53003 18.0901 4.59003 18.5501 4.71003C18.5901 4.71003 22.1301 5.86003 20.9201 10.72C20.0801 14.08 15.1601 18.34 12.7401 20.16C12.6722 20.2074 12.5911 20.2319 12.5084 20.2301C12.4257 20.2283 12.3458 20.2003 12.2801 20.15L10.4801 18.73C6.88007 15.69 4.60007 12.84 4.07007 10.72C2.86007 5.87003 6.40007 4.72003 6.44007 4.71003C6.90007 4.59003 7.36007 4.53003 7.78007 4.53003C9.77007 4.53003 10.9301 5.88003 11.4401 6.69003L12.1501 7.82003C12.3101 8.07003 12.6801 8.07003 12.8301 7.82003L13.5401 6.69003C14.0501 5.88003 15.2001 4.53003 17.2001 4.53003M17.2001 3.28003C14.9401 3.28003 13.4201 4.60003 12.5401 5.93003C12.5101 5.97003 12.4501 5.97003 12.4301 5.93003C11.5601 4.59003 10.0301 3.28003 7.77007 3.28003C7.21306 3.28449 6.65878 3.35839 6.12007 3.50003C4.86007 3.82003 1.57007 5.90003 2.85007 11.02C3.61007 14.07 6.98007 17.42 9.67007 19.69L12.2501 21.72C12.3801 21.82 12.5601 21.83 12.6901 21.73C14.0301 20.73 21.0501 15.35 22.1301 11.02C23.4101 5.90003 20.1101 3.82003 18.8601 3.50003C18.3214 3.35839 17.7671 3.28449 17.2101 3.28003H17.2001Z" fill="#414143"/>
</svg>
