<svg width="17" height="16" viewBox="0 0 17 16" fill="none" xmlns="http://www.w3.org/2000/svg">
<g clip-path="url(#clip0_65_382)">
<path d="M7.6701 15.62H1.3501C1.21749 15.62 1.09031 15.5673 0.996544 15.4735C0.902776 15.3798 0.850098 15.2526 0.850098 15.12V5.77998C0.850098 5.49998 1.0701 5.27998 1.3501 5.27998H7.6701C7.9501 5.27998 8.1701 5.49998 8.1701 5.77998V15.12C8.1701 15.2526 8.11742 15.3798 8.02365 15.4735C7.92988 15.5673 7.80271 15.62 7.6701 15.62ZM1.8501 14.62H7.1701V6.27998H1.8501V14.62ZM15.6601 15.62H13.3601C13.2275 15.62 13.1003 15.5673 13.0065 15.4735C12.9128 15.3798 12.8601 15.2526 12.8601 15.12C12.8601 14.84 13.0801 14.62 13.3601 14.62H15.1601V5.22998H13.3601C13.2275 5.22998 13.1003 5.1773 13.0065 5.08353C12.9128 4.98977 12.8601 4.86259 12.8601 4.72998C12.8601 4.44998 13.0801 4.22998 13.3601 4.22998H15.6601C15.9401 4.22998 16.1601 4.44998 16.1601 4.72998V15.12C16.1601 15.2526 16.1074 15.3798 16.0137 15.4735C15.9199 15.5673 15.7927 15.62 15.6601 15.62Z" fill="#121214"/>
<path d="M11.21 15.62H9.84999C9.71738 15.62 9.59021 15.5673 9.49644 15.4735C9.40267 15.3798 9.34999 15.2526 9.34999 15.12C9.34999 14.84 9.56999 14.62 9.84999 14.62H10.71V3.85998L9.15999 1.68998L7.51999 3.91998C7.48134 3.97327 7.43254 4.01841 7.3764 4.0528C7.32026 4.0872 7.25788 4.11016 7.19284 4.12038C7.1278 4.1306 7.06138 4.12788 6.9974 4.11236C6.93342 4.09685 6.87313 4.06885 6.81999 4.02998C6.76669 3.99132 6.72155 3.94253 6.68716 3.88639C6.65277 3.83025 6.62981 3.76786 6.61959 3.70283C6.60937 3.63779 6.61209 3.57137 6.62761 3.50738C6.64312 3.4434 6.67112 3.38311 6.70999 3.32998L8.76999 0.549976C8.86999 0.419976 9.01999 0.359976 9.17999 0.349976C9.33999 0.349976 9.48999 0.429976 9.57999 0.559976L11.62 3.41998C11.6793 3.50498 11.7108 3.60632 11.71 3.70998V15.12C11.71 15.2526 11.6573 15.3798 11.5635 15.4735C11.4698 15.5673 11.3426 15.62 11.21 15.62Z" fill="#121214"/>
</g>
<defs>
<clipPath id="clip0_65_382">
<rect width="16" height="16" fill="white" transform="translate(0.5)"/>
</clipPath>
</defs>
</svg>
