<svg width="17" height="17" viewBox="0 0 17 17" fill="none" xmlns="http://www.w3.org/2000/svg">
<path fill-rule="evenodd" clip-rule="evenodd" d="M14.4843 6.11402C14.4843 6.21849 14.4626 6.32183 14.4204 6.4174C14.3782 6.51297 14.3165 6.59868 14.2393 6.66902L8.98925 11.442C8.85073 11.567 8.6708 11.6361 8.48425 11.6361C8.29771 11.6361 8.11778 11.567 7.97925 11.442L2.72925 6.66902C2.58206 6.53509 2.4941 6.34817 2.48472 6.14938C2.47534 5.95059 2.54532 5.75622 2.67925 5.60902C2.81319 5.46183 3.00011 5.37387 3.1989 5.36449C3.39769 5.35511 3.59206 5.42509 3.73925 5.55902L8.48425 9.87302L13.2293 5.55902C13.3368 5.46112 13.4704 5.39658 13.6139 5.37325C13.7574 5.34991 13.9046 5.3688 14.0376 5.4276C14.1706 5.48641 14.2836 5.5826 14.3629 5.70447C14.4422 5.82633 14.4844 5.96862 14.4843 6.11402Z" fill="#121214"/>
</svg>
