<svg width="40" height="40" viewBox="0 0 40 40" fill="none" xmlns="http://www.w3.org/2000/svg">
<path d="M19.2417 36.1C13.1667 33.5167 5.45833 28.9 4.50833 21.5583C4.43333 20.9667 4.375 20.375 4.375 19.7833V7.475C4.375 7.05 4.8 6.76667 5.19167 6.91667C7.41667 7.76667 14.175 9.36667 19.2417 4.375V36.1Z" fill="#FBBC04"/>
<path d="M18.6085 37.0584C18.8054 37.1445 19.0177 37.1897 19.2326 37.1911C19.4475 37.1925 19.6605 37.1502 19.8585 37.0667C20.9168 36.6417 24.6335 35.0417 28.1418 32.25C32.7835 28.55 35.1418 24.35 35.1418 19.775V18.175C35.1418 17.8988 35.0321 17.6338 34.8367 17.4385C34.6414 17.2431 34.3764 17.1334 34.1002 17.1334C33.8239 17.1334 33.5589 17.2431 33.3636 17.4385C33.1682 17.6338 33.0585 17.8988 33.0585 18.175V19.775C33.0585 28.95 21.3002 34.2167 19.2502 35.0667C13.4335 32.5584 6.41683 28.175 5.54183 21.4167C5.4835 20.925 5.41683 20.3417 5.41683 19.775V8.10837C7.9585 8.95837 14.1585 10.3 19.2252 5.5917C24.3085 10.3 30.5085 8.95837 33.0502 8.10837V8.78337C33.0502 9.05963 33.1599 9.32458 33.3553 9.51994C33.5506 9.71529 33.8156 9.82503 34.0918 9.82503C34.3681 9.82503 34.633 9.71529 34.8284 9.51994C35.0237 9.32458 35.1335 9.05963 35.1335 8.78337V7.47503C35.1335 6.93337 34.8668 6.43337 34.4252 6.12503C33.9835 5.82503 33.4168 5.75837 32.9085 5.95003C30.6752 6.8167 24.9668 8.32503 20.3918 3.8167C19.7418 3.17503 18.7252 3.17503 18.0752 3.8167C13.5002 8.32503 7.80016 6.80837 5.5585 5.95003C5.0585 5.75003 4.4835 5.8167 4.04183 6.12503C3.60016 6.43337 3.3335 6.93337 3.3335 7.47503V19.775C3.3335 20.4667 3.4085 21.1334 3.4835 21.6917C4.49183 29.4917 12.2668 34.35 18.6085 37.0584Z" fill="#FBBC04"/>
<path d="M18.4333 29.0916C18.6333 29.2916 18.9 29.3916 19.1667 29.3916C19.4333 29.3916 19.7 29.2916 19.9083 29.0833L36.2917 12.7C36.7 12.2916 36.7 11.6333 36.2917 11.225C36.1949 11.128 36.08 11.051 35.9534 10.9985C35.8269 10.946 35.6912 10.9189 35.5542 10.9189C35.4172 10.9189 35.2815 10.946 35.1549 10.9985C35.0284 11.051 34.9134 11.128 34.8167 11.225L19.1667 26.8833L14.0083 21.7666C13.6 21.3666 12.9417 21.3666 12.5333 21.775C12.1333 22.1833 12.1333 22.8416 12.5417 23.25L18.4333 29.0916Z" fill="#FBBC04"/>
</svg>
