<svg width="41" height="40" viewBox="0 0 41 40" fill="none" xmlns="http://www.w3.org/2000/svg">
<path d="M10.9002 26.9168V14.7834C9.29118 14.7834 7.7481 15.4226 6.61038 16.5603C5.47266 17.6981 4.8335 19.2411 4.8335 20.8501C4.8335 22.4591 5.47266 24.0022 6.61038 25.1399C7.7481 26.2776 9.29118 26.9168 10.9002 26.9168ZM30.0752 14.7834V26.9168C31.6841 26.9168 33.2272 26.2776 34.3649 25.1399C35.5027 24.0022 36.1418 22.4591 36.1418 20.8501C36.1418 19.2411 35.5027 17.6981 34.3649 16.5603C33.2272 15.4226 31.6841 14.7834 30.0752 14.7834ZM18.6335 35.3334H22.3418C23.3002 35.3334 24.0668 34.5584 24.0668 33.6084C24.0668 32.6584 23.3002 31.8834 22.3418 31.8834H18.6335C17.6835 31.8834 16.9085 32.6501 16.9085 33.6084C16.9085 34.5584 17.6752 35.3334 18.6335 35.3334Z" fill="#FBBC04"/>
<path fill-rule="evenodd" clip-rule="evenodd" d="M24.9385 32.5582C24.7307 32.0487 24.376 31.6126 23.9195 31.3054C23.463 30.9982 22.9254 30.8338 22.3752 30.8332H18.6668C17.1418 30.8332 15.9002 32.0832 15.9002 33.6082C15.9002 35.1332 17.1418 36.3749 18.6668 36.3749H22.3835C22.9338 36.3735 23.4712 36.2078 23.9267 35.8989C24.3822 35.5901 24.7351 35.1523 24.9402 34.6415H25.5168C28.6252 34.6415 31.1502 32.1165 31.1502 29.0082V27.8832C34.5818 27.3774 37.2168 24.414 37.2168 20.8507C37.2168 17.2874 34.5752 14.324 31.1493 13.8182C31.1343 12.4295 30.8454 11.0573 30.2993 9.78038C29.7532 8.50342 28.9606 7.34673 27.9668 6.37654C25.9168 4.35821 23.2002 3.28321 20.3252 3.33321C14.7243 3.43904 10.1435 8.09904 9.90933 13.8165C6.47933 14.3182 3.8335 17.2832 3.8335 20.8499C3.8335 24.7624 7.01933 27.9524 10.931 27.9582H10.9418C11.2181 27.9582 11.483 27.8485 11.6784 27.6531C11.8737 27.4578 11.9835 27.1928 11.9835 26.9165V15.7865C14.6968 15.5949 18.4102 14.6407 20.3377 12.1615C21.2777 13.4615 23.1002 14.9365 26.6252 15.5332C26.6835 15.5415 26.7418 15.5499 26.8002 15.5499C27.3002 15.5499 27.7418 15.1915 27.8168 14.6832C27.9168 14.1165 27.5335 13.5832 26.9668 13.4832C22.5418 12.7349 21.6268 10.4724 21.4535 9.80571C21.5633 9.31414 21.618 8.81189 21.6168 8.30821C21.6168 8.03194 21.5071 7.76699 21.3117 7.57164C21.1164 7.37629 20.8514 7.26655 20.5752 7.26655C20.2989 7.26655 20.0339 7.37629 19.8386 7.57164C19.6432 7.76699 19.5335 8.03194 19.5335 8.30821C19.5335 8.69655 19.4877 9.05821 19.4035 9.39238C19.3868 9.44238 19.3727 9.49238 19.3627 9.54404C18.4443 12.699 14.0543 13.4832 12.0027 13.6774C12.2993 9.14904 15.9352 5.49655 20.3668 5.41654C22.6752 5.36654 24.8585 6.24154 26.5085 7.85821C28.1585 9.48321 29.0668 11.6499 29.0668 13.9582V29.0082C29.0668 30.9665 27.4752 32.5582 25.5168 32.5582H24.9385ZM5.91683 20.8499C5.91683 18.4399 7.63016 16.4165 9.90016 15.9332V25.7665C7.63016 25.2832 5.91683 23.2599 5.91683 20.8499ZM31.1502 25.7665C32.2764 25.5263 33.2862 24.9072 34.0111 24.0124C34.736 23.1177 35.1321 22.0014 35.1335 20.8499C35.1321 19.6983 34.736 18.5821 34.0111 17.6873C33.2862 16.7926 32.2764 16.1734 31.1502 15.9332V25.7665ZM17.9835 33.5999C17.9835 33.2332 18.2918 32.9165 18.6668 32.9165H22.3752C22.7418 32.9165 23.0585 33.2332 23.0585 33.5999C23.0585 33.9665 22.7502 34.2832 22.3752 34.2832H18.6668C18.3002 34.2832 17.9835 33.9665 17.9835 33.5999Z" fill="#FBBC04"/>
<path d="M13.4419 20.9918C13.5835 21.0584 13.7335 21.0918 13.8835 21.0918C14.2752 21.0918 14.6502 20.8751 14.8252 20.4834C14.8252 20.4751 15.2585 19.6084 16.1085 19.6084C16.916 19.6084 17.3619 20.3901 17.4194 20.4901L17.4252 20.5001C17.6752 21.0251 18.3002 21.2334 18.8169 20.9834C19.3335 20.7334 19.5502 20.1084 19.3002 19.5918C18.9252 18.8251 17.8335 17.5334 16.1085 17.5334C14.3752 17.5334 13.3002 18.8418 12.9419 19.6084C12.7002 20.1251 12.9252 20.7501 13.4419 20.9918ZM22.3335 20.9918C22.4752 21.0584 22.6252 21.0918 22.7752 21.0918C23.1669 21.0918 23.5419 20.8751 23.7169 20.4834C23.7169 20.4751 24.1502 19.6084 25.0002 19.6084C25.8077 19.6084 26.2535 20.3901 26.311 20.4901L26.3169 20.5001C26.5669 21.0251 27.1919 21.2334 27.7085 20.9834C28.2252 20.7334 28.4419 20.1084 28.1919 19.5918C27.8169 18.8251 26.7252 17.5334 25.0002 17.5334C23.2669 17.5334 22.1919 18.8418 21.8335 19.6084C21.5919 20.1251 21.8169 20.7501 22.3335 20.9918Z" fill="#FBBC04"/>
</svg>
