<svg width="24" height="25" viewBox="0 0 24 25" fill="none" xmlns="http://www.w3.org/2000/svg">
<path d="M20.75 21.8335C20.6684 21.8339 20.5876 21.8182 20.5121 21.7873C20.4366 21.7564 20.3679 21.7109 20.31 21.6535L14.2 15.5435C14.1416 15.4841 14.0957 15.4138 14.0648 15.3365C14.0339 15.2593 14.0187 15.1767 14.02 15.0935C14.02 14.9235 14.09 14.7635 14.21 14.6435L14.29 14.5735C16.8 12.0635 16.8 7.96345 14.28 5.45345C11.76 2.93345 7.66001 2.93345 5.15001 5.45345C2.63001 7.97345 2.63001 12.0735 5.15001 14.5835C5.95854 15.3908 6.96644 15.9698 8.07125 16.2613C9.17605 16.5529 10.3384 16.5467 11.44 16.2435C11.78 16.1535 12.12 16.3435 12.21 16.6835C12.3 17.0135 12.11 17.3635 11.77 17.4535C9.10001 18.1935 6.22001 17.4335 4.26001 15.4735C1.26001 12.4635 1.26001 7.57345 4.26001 4.57345C7.26001 1.57345 12.16 1.56345 15.16 4.57345C18.04 7.45345 18.16 12.0735 15.51 15.0935L21.19 20.7735C21.43 21.0135 21.43 21.4135 21.19 21.6535C21.1321 21.7109 21.0635 21.7564 20.9879 21.7873C20.9124 21.8182 20.8316 21.8339 20.75 21.8335Z" fill="white"/>
</svg>
