<svg width="62" height="62" viewBox="0 0 62 62" fill="none" xmlns="http://www.w3.org/2000/svg">
<path d="M30.8055 24.711C27.3273 24.711 24.5219 27.5165 24.5219 30.9946C24.5219 34.4727 27.3273 37.2782 30.8055 37.2782C34.2836 37.2782 37.0891 34.4727 37.0891 30.9946C37.0891 27.5165 34.2836 24.711 30.8055 24.711ZM30.8055 35.0797C28.5578 35.0797 26.7203 33.2477 26.7203 30.9946C26.7203 28.7415 28.5523 26.9094 30.8055 26.9094C33.0586 26.9094 34.8906 28.7415 34.8906 30.9946C34.8906 33.2477 33.0531 35.0797 30.8055 35.0797ZM38.8117 24.454C38.8117 25.2688 38.1555 25.9196 37.3461 25.9196C36.5313 25.9196 35.8805 25.2633 35.8805 24.454C35.8805 23.6446 36.5367 22.9883 37.3461 22.9883C38.1555 22.9883 38.8117 23.6446 38.8117 24.454ZM42.9734 25.9415C42.8805 23.9782 42.432 22.2391 40.9937 20.8063C39.5609 19.3735 37.8219 18.925 35.8586 18.8266C33.8352 18.7118 27.7703 18.7118 25.7469 18.8266C23.7891 18.9196 22.05 19.368 20.6117 20.8008C19.1734 22.2336 18.7305 23.9727 18.632 25.936C18.5172 27.9594 18.5172 34.0243 18.632 36.0477C18.725 38.011 19.1734 39.75 20.6117 41.1829C22.05 42.6157 23.7836 43.0641 25.7469 43.1625C27.7703 43.2774 33.8352 43.2774 35.8586 43.1625C37.8219 43.0696 39.5609 42.6211 40.9937 41.1829C42.4266 39.75 42.875 38.011 42.9734 36.0477C43.0883 34.0243 43.0883 27.9649 42.9734 25.9415ZM40.3594 38.2188C39.9328 39.2907 39.107 40.1165 38.0297 40.5485C36.4164 41.1883 32.5883 41.0407 30.8055 41.0407C29.0227 41.0407 25.1891 41.1829 23.5812 40.5485C22.5094 40.1219 21.6836 39.2961 21.2516 38.2188C20.6117 36.6055 20.7594 32.7774 20.7594 30.9946C20.7594 29.2118 20.6172 25.3782 21.2516 23.7704C21.6781 22.6985 22.5039 21.8727 23.5812 21.4407C25.1945 20.8008 29.0227 20.9485 30.8055 20.9485C32.5883 20.9485 36.4219 20.8063 38.0297 21.4407C39.1016 21.8672 39.9273 22.693 40.3594 23.7704C40.9992 25.3836 40.8516 29.2118 40.8516 30.9946C40.8516 32.7774 40.9992 36.611 40.3594 38.2188Z" fill="#54595F"/>
</svg>
