<svg width="62" height="63" viewBox="0 0 62 63" fill="none" xmlns="http://www.w3.org/2000/svg">
<g clip-path="url(#clip0_74_568)">
<path d="M43.5193 25.1774C43.214 24.0278 42.3144 23.1223 41.1722 22.8151C39.1018 22.2567 30.8 22.2567 30.8 22.2567C30.8 22.2567 22.4982 22.2567 20.4278 22.8151C19.2856 23.1224 18.386 24.0278 18.0806 25.1774C17.5259 27.2612 17.5259 31.6089 17.5259 31.6089C17.5259 31.6089 17.5259 35.9566 18.0806 38.0404C18.386 39.1901 19.2856 40.0578 20.4278 40.365C22.4982 40.9234 30.8 40.9234 30.8 40.9234C30.8 40.9234 39.1018 40.9234 41.1722 40.365C42.3144 40.0578 43.214 39.1901 43.5193 38.0404C44.0741 35.9566 44.0741 31.6089 44.0741 31.6089C44.0741 31.6089 44.0741 27.2612 43.5193 25.1774ZM28.0848 35.5563V27.6615L35.0235 31.609L28.0848 35.5563Z" fill="#54595F"/>
</g>
<defs>
<clipPath id="clip0_74_568">
<rect width="28" height="28" fill="white" transform="translate(16.7998 17.5901)"/>
</clipPath>
</defs>
</svg>
