<svg width="24" height="25" viewBox="0 0 24 25" fill="none" xmlns="http://www.w3.org/2000/svg">
<g clip-path="url(#clip0_74_589)">
<path d="M12.8531 6.91989C14.0273 7.12145 15.1007 7.67692 15.9562 8.53004C16.807 9.38082 17.3648 10.4543 17.5664 11.6308C17.6437 12.0949 18.0422 12.43 18.5132 12.43C18.5742 12.43 18.6281 12.423 18.6656 12.416C18.6679 12.416 18.6703 12.416 18.6726 12.4136C18.9281 12.3714 19.1507 12.2332 19.2984 12.0199C19.4461 11.8089 19.5023 11.5558 19.4578 11.305C19.1906 9.73473 18.45 8.30504 17.3132 7.16832C16.1718 6.0316 14.7398 5.29098 13.1718 5.02614H13.1695C12.6468 4.93942 12.1523 5.29332 12.0656 5.81364C11.9836 6.33864 12.3351 6.83317 12.8531 6.91989Z" fill="white"/>
<path d="M18.7619 14.9656C18.2369 14.4195 17.6017 14.1312 16.9244 14.1312C16.2541 14.1312 15.6143 14.4148 15.0775 14.9539L13.7439 16.2875C13.7111 16.2711 13.6783 16.2547 13.6478 16.2383L13.5799 16.2055C13.4369 16.1328 13.2728 16.0508 13.1369 15.9664C11.7682 15.0969 10.5189 13.9578 9.31425 12.4813C8.79862 11.832 8.43769 11.2812 8.17284 10.7328C8.508 10.4164 8.81972 10.1 9.11269 9.8C9.17831 9.73437 9.24394 9.66641 9.31191 9.59844C9.37753 9.53047 9.4455 9.4625 9.51347 9.39453C10.0713 8.83672 10.3666 8.18984 10.3643 7.52422C10.3643 6.86094 10.0689 6.21641 9.51347 5.66328L8.21737 4.36719C8.14237 4.29219 8.06737 4.21719 7.99472 4.14219C7.92206 4.06719 7.84706 3.99219 7.77441 3.91953L7.67128 3.81406C7.41581 3.55391 7.15097 3.28438 6.88378 3.03828C6.36347 2.52031 5.733 2.24609 5.06503 2.24609C4.39941 2.24609 3.76425 2.52031 3.22284 3.03828C3.2205 3.04063 3.21816 3.04062 3.21816 3.04297L1.59394 4.66484C0.930655 5.32812 0.553311 6.13672 0.47128 7.06719V7.06953C0.384561 8.17109 0.58378 9.33359 1.09941 10.7281C1.87987 12.8375 3.05175 14.7922 4.78378 16.8781C6.89784 19.3977 9.43612 21.3852 12.326 22.7844H12.3283C13.4416 23.3164 14.9369 23.9398 16.6244 24.05C16.6267 24.05 16.6291 24.05 16.6314 24.05H16.6432C16.7393 24.0547 16.84 24.0594 16.9455 24.0594C18.1291 24.0594 19.1275 23.6305 19.9103 22.7844L19.9221 22.7727C19.9314 22.7633 19.9385 22.7563 19.9455 22.7469C20.1799 22.4656 20.4494 22.2055 20.7518 21.9148C20.9603 21.7156 21.1736 21.5117 21.3799 21.2914C21.9119 20.7359 22.1932 20.0891 22.1908 19.4211C22.1885 18.7508 21.9025 18.1109 21.3635 17.5719L18.7619 14.9656ZM18.5041 21.4977C18.0869 21.943 17.6088 22.1422 16.9572 22.1422C16.8963 22.1422 16.8283 22.1375 16.758 22.1328C15.408 22.0461 14.1307 21.5117 13.1697 21.0547C10.5166 19.7773 8.19159 17.9586 6.258 15.6477C4.67597 13.7422 3.60956 11.9656 2.90409 10.0625C2.48222 8.93047 2.32284 8.05391 2.38847 7.22656C2.43066 6.74375 2.61112 6.35938 2.95566 6.01953L4.56816 4.40703C4.73691 4.24531 4.91034 4.15859 5.07206 4.15859C5.22441 4.15859 5.38612 4.24297 5.55722 4.40938C5.55956 4.41172 5.56191 4.41406 5.56425 4.41641C5.84316 4.67891 6.11503 4.95547 6.40331 5.24609L6.41269 5.25547C6.55097 5.39844 6.71034 5.5625 6.87206 5.71953L8.16581 7.01328C8.54316 7.39062 8.54316 7.65547 8.16581 8.03281C8.02987 8.16875 7.89159 8.30703 7.75566 8.44766L7.65956 8.54609C7.29628 8.91406 6.95409 9.26094 6.58144 9.59141C6.57675 9.59609 6.56972 9.60078 6.56503 9.60781L6.54159 9.63125C6.1455 10.0273 6.03769 10.5008 6.22284 11.0352C6.22753 11.0492 6.23222 11.0609 6.23691 11.0727C6.23925 11.0797 6.24159 11.0867 6.24628 11.0938C6.59316 11.9305 7.08066 12.725 7.83066 13.6742C7.83066 13.6766 7.833 13.6766 7.833 13.6789C9.16425 15.3172 10.5682 16.5969 12.1267 17.5859C12.3307 17.7148 12.5416 17.8227 12.7385 17.9211C12.8838 17.9937 13.0478 18.0781 13.1838 18.1602C13.1932 18.1672 13.2025 18.1719 13.2119 18.1766L13.2189 18.1813C13.233 18.1883 13.2471 18.1977 13.2635 18.2047C13.4674 18.3078 13.6689 18.357 13.8775 18.357C14.2338 18.357 14.5619 18.2094 14.8267 17.9305L16.4486 16.3086C16.5658 16.1914 16.7486 16.0508 16.9408 16.0508C17.1189 16.0508 17.2924 16.1891 17.4049 16.3063C17.4072 16.3086 17.4072 16.3086 17.4096 16.3109L20.0275 18.9289C20.2853 19.1867 20.4611 19.4914 20.0064 19.9695L20.0041 19.9719C19.8611 20.1266 19.7088 20.2742 19.5471 20.4313C19.5119 20.4641 19.4768 20.4992 19.4416 20.5344C19.1135 20.8414 18.7994 21.1461 18.5041 21.4977Z" fill="white"/>
<path d="M23.5334 11.1174C23.1021 8.57909 21.9021 6.26347 20.0623 4.42362C18.2154 2.58143 15.8998 1.38143 13.3592 0.952527C12.8365 0.865809 12.342 1.21972 12.2553 1.74003C12.1685 2.26268 12.5225 2.75722 13.0404 2.84393C15.1896 3.20956 17.1467 4.22675 18.7029 5.78065C20.2592 7.3369 21.274 9.29393 21.6396 11.4408C21.717 11.9049 22.1154 12.24 22.5865 12.24C22.5889 12.24 22.5912 12.24 22.5935 12.24C22.6521 12.24 22.7014 12.233 22.7389 12.226C22.7412 12.226 22.7435 12.226 22.7459 12.2236C23.0014 12.1814 23.224 12.0432 23.3717 11.8299C23.5217 11.6213 23.5779 11.3682 23.5334 11.1174Z" fill="white"/>
</g>
<defs>
<clipPath id="clip0_74_589">
<rect width="24" height="24" fill="white" transform="translate(0 0.5)"/>
</clipPath>
</defs>
</svg>
